<?xml version="1.0" encoding="UTF-8" standalone="no"?><!DOCTYPE svg PUBLIC "-//W3C//DTD SVG 1.1//EN" "http://www.w3.org/Graphics/SVG/1.1/DTD/svg11.dtd"><svg width="100%" height="100%" viewBox="0 0 569 526" version="1.1" xmlns="http://www.w3.org/2000/svg" xmlns:xlink="http://www.w3.org/1999/xlink" xml:space="preserve" xmlns:serif="http://www.serif.com/" style="fill-rule:evenodd;clip-rule:evenodd;stroke-linejoin:round;stroke-miterlimit:2;"><path d="M80.036,372.2c-60.487,-112.631 -18.072,-253.483 94.571,-313.977c112.631,-60.487 253.49,-18.059 313.977,94.572c60.493,112.642 18.059,253.489 -94.571,313.976c-112.643,60.494 -253.484,18.072 -313.977,-94.571Zm382.191,-205.251c-52.683,-98.098 -175.361,-135.039 -273.459,-82.357c-98.11,52.689 -135.058,175.355 -82.375,273.454c52.689,98.109 175.355,135.057 273.465,82.368c98.098,-52.682 135.057,-175.355 82.369,-273.465Z" style="fill:none;fill-rule:nonzero;stroke:#15d0ff;stroke-width:54.96px;"/><path d="M371.085,399.067c-34.937,18.762 -78.463,5.652 -97.226,-29.285c-18.762,-34.937 -5.652,-78.463 29.285,-97.225c34.937,-18.763 78.463,-5.652 97.225,29.284c18.762,34.937 5.652,78.463 -29.284,97.226Z" style="fill:#0096ff;fill-rule:nonzero;"/></svg>