<?xml version="1.0" encoding="UTF-8" standalone="no"?><!DOCTYPE svg PUBLIC "-//W3C//DTD SVG 1.1//EN" "http://www.w3.org/Graphics/SVG/1.1/DTD/svg11.dtd"><svg width="100%" height="100%" viewBox="0 0 569 526" version="1.1" xmlns="http://www.w3.org/2000/svg" xmlns:xlink="http://www.w3.org/1999/xlink" xml:space="preserve" xmlns:serif="http://www.serif.com/" style="fill-rule:evenodd;clip-rule:evenodd;stroke-linejoin:round;stroke-miterlimit:2;"><path d="M277.176,494.256c-127.785,-3.932 -228.559,-111.09 -224.626,-238.889c3.932,-127.785 111.105,-228.558 238.89,-224.626c127.797,3.933 228.557,111.105 224.626,238.889c-3.933,127.799 -111.092,228.559 -238.89,224.626Zm13.343,-433.612c-111.297,-3.424 -204.628,84.347 -208.053,195.644c-3.425,111.31 84.333,204.641 195.631,208.066c111.309,3.424 204.64,-84.334 208.065,-195.644c3.425,-111.296 -84.333,-204.64 -195.643,-208.066Z" style="fill:none;fill-rule:nonzero;stroke:#0096ff;stroke-width:54.96px;"/><path d="M544.719,256.192c-0.749,24.334 -21.08,43.452 -45.414,42.703c-24.334,-0.749 -43.452,-21.08 -42.703,-45.414c0.749,-24.335 21.08,-43.452 45.414,-42.703c24.334,0.749 43.451,21.08 42.703,45.414Z" style="fill:#31efea;fill-rule:nonzero;"/></svg>