<?xml version="1.0" encoding="UTF-8" standalone="no"?><!DOCTYPE svg PUBLIC "-//W3C//DTD SVG 1.1//EN" "http://www.w3.org/Graphics/SVG/1.1/DTD/svg11.dtd"><svg width="100%" height="100%" viewBox="0 0 1707 1664" version="1.1" xmlns="http://www.w3.org/2000/svg" xmlns:xlink="http://www.w3.org/1999/xlink" xml:space="preserve" xmlns:serif="http://www.serif.com/" style="fill-rule:evenodd;clip-rule:evenodd;stroke-linejoin:round;stroke-miterlimit:2;"><rect id="Artboard1" x="0" y="0" width="1706.21" height="1663.62" style="fill:none;"/><g><path d="M97.655,1305.81l713.058,354.81l713.059,-354.81l-713.059,-354.822l-713.058,354.822Z" style="fill:url(#_Linear1);fill-rule:nonzero;"/><path d="M886.861,820.874l-764.901,221.97l638.356,476.283l764.901,-221.971l-638.356,-476.282Z" style="fill:#fff;fill-rule:nonzero;"/><path d="M192.76,788.432l543.205,582.481l792.217,-82.014l-543.194,-582.481l-792.228,82.014Z" style="fill:url(#_Linear2);fill-rule:nonzero;"/><path d="M1101.96,611.299l-794.147,-60.571l430.621,670.013l794.147,60.559l-430.621,-670.001Z" style="fill:#fff;fill-rule:nonzero;"/><path d="M767.633,1073.41l770.625,201.213l-304.247,-736.055l-770.625,-201.213l304.247,736.055Z" style="fill:url(#_Linear3);fill-rule:nonzero;"/><path d="M1376.92,490.535l-722.392,-335.4l168.117,778.507l722.392,335.401l-168.117,-778.508Z" style="fill:#fff;fill-rule:nonzero;"/><path d="M901.695,805.933l651.003,458.838l-26.595,-796.009l-651.003,-458.838l26.595,796.009Z" style="fill:url(#_Linear4);fill-rule:nonzero;"/></g><defs><linearGradient id="_Linear1" x1="0" y1="0" x2="1" y2="0" gradientUnits="userSpaceOnUse" gradientTransform="matrix(-1558.69,1369.45,-1369.45,-1558.69,1655.33,563.723)"><stop offset="0" style="stop-color:#ff009d;stop-opacity:1"/><stop offset="0.47" style="stop-color:#0ad;stop-opacity:1"/><stop offset="0.77" style="stop-color:#ffd400;stop-opacity:1"/><stop offset="1" style="stop-color:#ff001c;stop-opacity:1"/></linearGradient><linearGradient id="_Linear2" x1="0" y1="0" x2="1" y2="0" gradientUnits="userSpaceOnUse" gradientTransform="matrix(-1558.68,1369.45,-1369.45,-1558.68,1544.56,437.639)"><stop offset="0" style="stop-color:#ff009d;stop-opacity:1"/><stop offset="0.47" style="stop-color:#0ad;stop-opacity:1"/><stop offset="0.77" style="stop-color:#ffd400;stop-opacity:1"/><stop offset="1" style="stop-color:#ff001c;stop-opacity:1"/></linearGradient><linearGradient id="_Linear3" x1="0" y1="0" x2="1" y2="0" gradientUnits="userSpaceOnUse" gradientTransform="matrix(-1558.69,1369.46,-1369.46,-1558.69,1490.33,375.91)"><stop offset="0" style="stop-color:#ff009d;stop-opacity:1"/><stop offset="0.47" style="stop-color:#0ad;stop-opacity:1"/><stop offset="0.77" style="stop-color:#ffd400;stop-opacity:1"/><stop offset="1" style="stop-color:#ff001c;stop-opacity:1"/></linearGradient><linearGradient id="_Linear4" x1="0" y1="0" x2="1" y2="0" gradientUnits="userSpaceOnUse" gradientTransform="matrix(-1558.71,1369.48,-1369.48,-1558.71,1499.53,386.391)"><stop offset="0" style="stop-color:#ff009d;stop-opacity:1"/><stop offset="0.47" style="stop-color:#0ad;stop-opacity:1"/><stop offset="0.77" style="stop-color:#ffd400;stop-opacity:1"/><stop offset="1" style="stop-color:#ff001c;stop-opacity:1"/></linearGradient></defs></svg>